<?xml version="1.0" standalone="no"?>
<!DOCTYPE svg PUBLIC "-//W3C//DTD SVG 20010904//EN"
 "http://www.w3.org/TR/2001/REC-SVG-20010904/DTD/svg10.dtd">
<svg version="1.0" xmlns="http://www.w3.org/2000/svg"
 width="100.000000pt" height="100.000000pt" viewBox="0 0 100.000000 100.000000"
 preserveAspectRatio="xMidYMid meet">

<g transform="translate(0.000000,100.000000) scale(0.100000,-0.100000)"
fill="#000000" stroke="none">
<path d="M386 944 c-171 -41 -308 -192 -338 -371 -51 -303 217 -573 521 -526
98 15 171 52 245 123 340 326 30 885 -428 774z m262 -74 c29 -13 52 -29 52
-37 0 -17 -19 -15 -110 12 -67 20 -155 15 -227 -14 -50 -20 -63 -19 -63 4 0
13 58 42 111 56 57 14 180 3 237 -21z m-14 -104 c105 -51 161 -144 161 -266 0
-85 -21 -142 -74 -203 -82 -92 -237 -121 -353 -64 -160 79 -215 278 -118 430
80 126 246 170 384 103z m-488 -323 c18 -87 56 -154 119 -210 57 -50 68 -73
36 -73 -34 0 -118 87 -155 160 -33 67 -54 159 -41 180 14 23 29 2 41 -57z
m747 6 c-4 -77 -58 -184 -124 -243 -49 -44 -89 -59 -89 -33 0 6 23 31 50 55
61 52 106 127 121 202 16 78 18 82 32 77 8 -3 11 -22 10 -58z"/>
<path d="M430 751 c-46 -15 -85 -39 -116 -73 -54 -57 -69 -95 -69 -178 0 -83
15 -121 69 -178 53 -57 101 -77 186 -77 57 0 84 5 115 22 47 25 95 74 121 123
26 49 26 171 0 220 -26 49 -74 98 -121 122 -43 22 -144 33 -185 19z m205 -138
c-3 -16 -22 -79 -42 -141 l-36 -113 -60 3 -60 3 -33 97 c-18 53 -35 111 -39
128 l-7 31 43 -3 42 -3 27 -80 27 -80 28 85 c15 47 30 88 32 93 2 4 22 7 45 7
39 0 40 -1 33 -27z"/>
</g>
</svg>
